# File created by Blade
# Date/Time:  Mon Sep 22 17:46:01 2014
# Frame Rate: 120.000 fps
#------------------------------------------------------
:FULLY-SPECIFIED
:DEGREES
4249
root 3.683079 37.724817 3.486924 2.209047 -24.909076 -13.008852
RightUpLeg 15.669287 -13.697028 -10.245694
RightLeg 69.274030 -0.000000 -0.000000
RightFoot -7.693802 -33.643562 11.199577
RightToeBase -8.381672 -0.000000 0.000000
LeftUpLeg 11.943569 0.809173 5.935342
LeftLeg -7.008527 -0.000000 0.000000
LeftFoot -10.573634 26.315723 -10.750138
LeftToeBase 4.602310 -0.000000 -0.000000
Spine 17.363730 -15.577482 -16.866488
RightShoulder -5.715078 -34.458290 -3.325584
RightArm 14.497759 -22.953649 70.968180
RightForeArm 6.878807 -0.000000 53.634336
RightHand -1.569254 -0.000000 -17.072142
RightHandThumb1 -24.326973 -0.000000 -32.862282
LeftShoulder -16.787397 31.147178 9.123490
LeftArm 52.040604 -43.655835 -68.284877
LeftForeArm 21.129797 0.000000 98.800589
LeftHand -33.514919 -0.000000 29.608294
LeftHandThumb1 -26.253704 0.000000 33.147579
Head 23.194016 18.192847 24.537015
4250
root 3.697384 37.708361 3.470125 1.869230 -25.404089 -12.838286
RightUpLeg 15.269851 -14.158265 -10.247448
RightLeg 68.320303 -0.000000 -0.000000
RightFoot -7.749944 -33.768286 11.295068
RightToeBase -8.669831 -0.000000 0.000000
LeftUpLeg 12.276402 0.883803 5.699335
LeftLeg -7.001043 -0.000000 0.000000
LeftFoot -10.702209 26.624573 -10.880825
LeftToeBase 4.577682 -0.000000 -0.000000
Spine 17.726511 -15.144523 -17.070945
RightShoulder -5.586489 -34.382949 -3.449253
RightArm 14.669756 -23.002243 71.015802
RightForeArm 6.713190 -0.000000 53.862421
RightHand -1.769698 -0.000000 -16.969750
RightHandThumb1 -24.326973 -0.000000 -32.862282
LeftShoulder -16.882042 31.059170 9.101591
LeftArm 51.998004 -43.898600 -68.463295
LeftForeArm 20.957006 0.000000 98.947010
LeftHand -33.623825 -0.000000 29.384560
LeftHandThumb1 -26.253704 0.000000 33.147579
Head 22.932457 18.507366 24.347102
4251
root 3.709909 37.694234 3.451082 1.537904 -25.945522 -12.703430
RightUpLeg 14.851756 -14.600629 -10.188579
RightLeg 67.338634 -0.000000 -0.000000
RightFoot -8.158891 -33.872025 11.885765
RightToeBase -7.080709 -0.000000 0.000000
LeftUpLeg 12.626789 1.017783 5.503924
LeftLeg -7.007932 -0.000000 0.000000
LeftFoot -10.805560 26.932570 -10.970006
LeftToeBase 4.744316 -0.000000 -0.000000
Spine 18.076759 -14.651222 -17.240592
RightShoulder -5.450739 -34.234026 -3.577330
RightArm 14.759856 -23.097871 71.072063
RightForeArm 6.662954 -0.000000 54.060458
RightHand -1.647874 -0.000000 -16.983840
RightHandThumb1 -24.326973 -0.000000 -32.862282
LeftShoulder -16.940457 30.981970 9.092659
LeftArm 51.942238 -44.097379 -68.570183
LeftForeArm 21.200672 0.000000 99.041796
LeftHand -33.917511 0.000000 29.752927
LeftHandThumb1 -26.253704 0.000000 33.147579
Head 22.713665 18.831586 24.179224
4252
root 3.717519 37.681392 3.434516 1.199181 -26.492224 -12.568138
RightUpLeg 14.467020 -15.079222 -10.118584
RightLeg 66.299220 -0.000000 -0.000000
RightFoot -8.333888 -34.173611 12.139312
RightToeBase -6.723065 -0.000000 0.000000
LeftUpLeg 12.998541 1.206295 5.324178
LeftLeg -7.030511 -0.000000 0.000000
LeftFoot -10.875485 27.194325 -11.051381
LeftToeBase 4.729581 -0.000000 -0.000000
Spine 18.420531 -14.158109 -17.420166
RightShoulder -5.328326 -34.153104 -3.689147
RightArm 14.903341 -23.195248 71.080860
RightForeArm 6.715973 -0.000000 54.302181
RightHand -1.649849 -0.000000 -17.071449
RightHandThumb1 -24.326973 -0.000000 -32.862282
LeftShoulder -17.008411 30.934347 9.062675
LeftArm 51.906802 -44.396675 -68.761616
LeftForeArm 20.777005 -0.000000 99.215073
LeftHand -33.648315 -0.000000 29.478462
LeftHandThumb1 -26.253704 0.000000 33.147579
Head 22.483791 19.095573 23.987401
4253
root 3.725292 37.668878 3.412947 0.907960 -27.015151 -12.468452
RightUpLeg 14.042432 -15.613535 -9.982623
RightLeg 65.282445 -0.000000 -0.000000
RightFoot -8.387311 -34.387229 12.262073
RightToeBase -6.562348 -0.000000 0.000000
LeftUpLeg 13.329018 1.339763 5.176177
LeftLeg -7.065373 -0.000000 0.000000
LeftFoot -10.952476 27.500119 -11.123007
LeftToeBase 4.752957 -0.000000 -0.000000
Spine 18.745798 -13.720699 -17.536366
RightShoulder -5.248836 -34.115732 -3.815922
RightArm 15.146673 -23.305714 71.042317
RightForeArm 6.680939 -0.000000 54.518969
RightHand -1.655517 -0.000000 -17.046761
RightHandThumb1 -24.326973 -0.000000 -32.862282
LeftShoulder -17.077230 30.874891 8.988757
LeftArm 51.854981 -44.703800 -68.926866
LeftForeArm 20.543819 -0.000000 99.390346
LeftHand -33.641916 -0.000000 29.473462
LeftHandThumb1 -26.253704 0.000000 33.147579
Head 22.283349 19.433940 23.774652
4254
root 3.729178 37.658282 3.391452 0.620923 -27.570903 -12.385717
RightUpLeg 13.626462 -16.109204 -9.793838
RightLeg 64.258291 -0.000000 -0.000000
RightFoot -8.217560 -34.567678 12.171308
RightToeBase -6.879762 -0.000000 0.000000
LeftUpLeg 13.694401 1.522488 5.053269
LeftLeg -7.140679 -0.000000 0.000000
LeftFoot -11.030688 27.783161 -11.251857
LeftToeBase 5.058926 -0.000000 -0.000000
Spine 19.045793 -13.249484 -17.638612
RightShoulder -5.123812 -33.937345 -3.966307
RightArm 15.164819 -23.400486 71.099009
RightForeArm 6.566115 -0.000000 54.803392
RightHand -1.773680 0.000000 -16.984524
RightHandThumb1 -24.326973 -0.000000 -32.862282
LeftShoulder -17.142286 30.856761 8.907655
LeftArm 51.870821 -44.989866 -69.125866
LeftForeArm 20.594901 0.000000 99.547186
LeftHand -33.807347 0.000000 29.446921
LeftHandThumb1 -26.253704 0.000000 33.147579
Head 22.095737 19.740146 23.555817
4255
root 3.735856 37.647748 3.372553 0.353122 -28.029195 -12.287934
RightUpLeg 13.238521 -16.732440 -9.627596
RightLeg 63.217496 -0.000000 -0.000000
RightFoot -8.025079 -34.706390 12.062597
RightToeBase -6.949143 -0.000000 0.000000
LeftUpLeg 14.010815 1.563071 4.902568
LeftLeg -7.217441 -0.000000 0.000000
LeftFoot -11.067868 28.135023 -11.291590
LeftToeBase 4.853888 -0.000000 -0.000000
Spine 19.326557 -12.889483 -17.732254
RightShoulder -5.047993 -33.889681 -4.093789
RightArm 15.350807 -23.543686 71.037369
RightForeArm 6.552132 -0.000000 55.063223
RightHand -1.799768 -0.000000 -17.159830
RightHandThumb1 -24.326973 -0.000000 -32.862282
LeftShoulder -17.179226 30.811576 8.833479
LeftArm 51.794851 -45.279105 -69.288356
LeftForeArm 20.471453 -0.000000 99.707845
LeftHand -33.733460 0.000000 29.311632
LeftHandThumb1 -26.253704 0.000000 33.147579
Head 21.977973 20.047717 23.350147
4256
root 3.741174 37.638855 3.352214 0.110327 -28.470938 -12.210633
RightUpLeg 12.811956 -17.371018 -9.407850
RightLeg 62.237350 -0.000000 -0.000000
RightFoot -7.848788 -34.834726 11.990833
RightToeBase -7.072197 -0.000000 0.000000
LeftUpLeg 14.290702 1.638338 4.786549
LeftLeg -7.257970 -0.000000 0.000000
LeftFoot -11.123462 28.411790 -11.354118
LeftToeBase 4.872648 -0.000000 -0.000000
Spine 19.590971 -12.578564 -17.799157
RightShoulder -4.933396 -33.846023 -4.281002
RightArm 15.527164 -23.638498 71.015747
RightForeArm 6.512526 0.000000 55.295467
RightHand -1.777905 -0.000000 -17.112337
RightHandThumb1 -24.326973 -0.000000 -32.862282
LeftShoulder -17.259476 30.826231 8.708586
LeftArm 51.784509 -45.550596 -69.487642
LeftForeArm 20.409952 0.000000 99.862503
LeftHand -33.717278 -0.000000 29.582760
LeftHandThumb1 -26.253704 0.000000 33.147579
Head 21.881650 20.378613 23.108567
4257
root 3.749672 37.630858 3.328929 -0.101104 -28.889697 -12.123954
RightUpLeg 12.325494 -18.080589 -9.183240
RightLeg 61.345476 -0.000000 -0.000000
RightFoot -7.719209 -34.928944 12.107506
RightToeBase -7.199722 -0.000000 0.000000
LeftUpLeg 14.511985 1.721608 4.664650
LeftLeg -7.273486 -0.000000 0.000000
LeftFoot -11.175874 28.662022 -11.402354
LeftToeBase 4.895417 -0.000000 -0.000000
Spine 19.822298 -12.284084 -17.862734
RightShoulder -4.831105 -33.753717 -4.436153
RightArm 15.602322 -23.725720 70.998723
RightForeArm 6.517882 -0.000000 55.579148
RightHand -1.741594 -0.000000 -17.067652
RightHandThumb1 -24.326973 -0.000000 -32.862282
LeftShoulder -17.304833 30.787296 8.625358
LeftArm 51.766422 -45.785130 -69.721536
LeftForeArm 20.480621 -0.000000 100.014873
LeftHand -33.723936 -0.000000 29.375475
LeftHandThumb1 -26.253704 0.000000 33.147579
Head 21.787252 20.687043 22.890196
